<svg xmlns="http://www.w3.org/2000/svg" width="300" height="33" viewBox="0 0 300 33"><defs><style>.a{fill:#1a1a1a;}</style></defs><path class="a" d="M23.61,20.78c0,8.32-3.76,11.57-11.31,11.57S1.24,28.09,1.24,21.5V19H9.6V20.7c0,2.32,0,4.47,2.49,4.47s2.23-2.91,2.23-4.26V1.49h9.29Z"/><path class="a" d="M28.38,1.49h25V9.22H37.67V13H51.9v7.18H37.67v3.76H53.8v7.72H28.38Z"/><path class="a" d="M58.1,1.49H74.61c7.94,0,9.63,4.48,9.63,7.56S82.76,13.73,80.52,15a7.36,7.36,0,0,1,5.24,7.51c0,6-5.24,9.16-10.56,9.16H58.1Zm9.29,11.74h4.9c1.94,0,3.16-.55,3.16-2.49,0-1.52-1.26-2.07-3.16-2.07h-4.9Zm0,11.23h5.45c1.94,0,3.63-.55,3.63-2.87,0-1.78-1.06-2.75-3.25-2.75H67.39Z"/><path class="a" d="M95.8,1.49h10.35c9.28,0,14.48,4.64,14.48,14.35,0,10.09-4.44,15.79-14.48,15.79H95.8Zm4,26.77h6.67c2.75,0,10.14-.76,10.14-11.87,0-7.17-2.66-11.52-10.05-11.52H99.81Z"/><path class="a" d="M149.59,20.74c0,7.6-4.35,11.61-11.86,11.61-7.77,0-12.37-3.59-12.37-11.61V1.49h4V20.74c0,5.32,3,8.23,8.36,8.23,5.06,0,7.85-2.91,7.85-8.23V1.49h4Z"/><path class="a" d="M154.87,1.49h4.26L175,25.93h.09V1.49h3.8V31.63H174.5L158.75,7.44h-.09V31.63h-3.79Z"/><path class="a" d="M184,1.49h4.26l15.88,24.44h.08V1.49h3.8V31.63h-4.39L187.92,7.44h-.08V31.63H184Z"/><path class="a" d="M237.44,20.74c0,7.6-4.35,11.61-11.86,11.61-7.77,0-12.37-3.59-12.37-11.61V1.49h4V20.74c0,5.32,3,8.23,8.36,8.23,5.07,0,7.85-2.91,7.85-8.23V1.49h4Z"/><path class="a" d="M265.05,10.57c-.84-4.27-4.26-6.42-8.44-6.42-7.18,0-10.22,5.91-10.22,12.2,0,6.88,3,12.62,10.26,12.62,5.28,0,8.32-3.71,8.7-8.69h4c-.76,7.51-5.45,12.07-13.05,12.07-9.37,0-13.93-6.92-13.93-15.7S247.36.77,256.65.77c6.29,0,11.48,3.38,12.41,9.8Z"/><path class="a" d="M274.34,1.49h4v15l15.28-15h5.2L286.12,13.65l13.21,18h-5.06l-10.9-15.24-5,4.69V31.63h-4Z"/></svg>