<?xml version="1.0" encoding="utf-8"?>
<svg width="404" height="58" viewBox="0 0 404 58" fill="none" xmlns="http://www.w3.org/2000/svg">
<path d="M33.3863 2.79181V0H24.9556V12.0791H33.3863V9.28728H27.7471V7.43545H31.5626V4.65769H27.7471V2.79181H33.3863Z" fill="#FF2532"/>
<path d="M25.895 43.42L11.4885 18.7988H3.49268V56.1584H10.9695V31.5654L25.376 56.1584H33.3718V18.7988H25.895V43.42Z" fill="#FF2532"/>
<path d="M25.895 43.5332L11.4885 18.9121H3.49268V56.2717H10.9695V31.6786L25.376 56.2717H33.3718V18.9121H25.895V43.5332Z" fill="#FF2532"/>
<path d="M95.5995 46.1831C95.5995 46.6742 95.5013 47.1231 95.3189 47.558C95.1366 47.9929 94.87 48.3577 94.5474 48.6803C94.2248 49.003 93.846 49.2555 93.4111 49.4379C92.9763 49.6203 92.5134 49.7044 92.0364 49.7044C91.5595 49.7044 91.0966 49.6203 90.6617 49.4379C90.2268 49.2555 89.8621 49.003 89.5395 48.6803C89.2168 48.3577 88.9643 47.9788 88.7679 47.558C88.5716 47.1371 88.4874 46.6742 88.4874 46.1831V28.4082H81.4034V46.1831C81.4034 46.6742 81.3052 47.1231 81.1228 47.558C80.9405 47.9929 80.6879 48.3577 80.3513 48.6803C80.0146 49.003 79.6359 49.2555 79.201 49.4379C78.7661 49.6203 78.3032 49.7044 77.8263 49.7044C77.3493 49.7044 76.8864 49.6203 76.4516 49.4379C76.0167 49.2555 75.652 49.003 75.3293 48.6803C75.0067 48.3577 74.7542 47.9788 74.5718 47.558C74.3895 47.1371 74.2913 46.6742 74.2913 46.1831V28.4082H67.1792V46.1831C67.1792 47.6422 67.4598 49.017 68.0068 50.3077C68.5679 51.5984 69.3254 52.7207 70.2793 53.6887C71.2473 54.6427 72.3695 55.4003 73.66 55.9615C74.9506 56.5226 76.3253 56.7892 77.7982 56.7892C79.1309 56.7892 80.4074 56.5647 81.6138 56.1017C82.8202 55.6388 83.9143 54.9654 84.8823 54.0815C85.8782 54.9654 86.9724 55.6388 88.1928 56.1017C89.4132 56.5647 90.6757 56.7892 91.9943 56.7892C93.4673 56.7892 94.856 56.5086 96.1466 55.9615C97.4371 55.4003 98.5734 54.6567 99.5272 53.6887C100.495 52.7347 101.253 51.6124 101.814 50.3077C102.375 49.017 102.641 47.6422 102.641 46.1831V28.4082H95.5574V46.1831H95.5995Z" fill="#FF2532"/>
<path d="M145.693 45.5955C145.693 46.1146 145.594 46.6056 145.398 47.0686C145.202 47.5315 144.935 47.9244 144.598 48.261C144.262 48.5977 143.869 48.8643 143.406 49.0607C142.957 49.2571 142.466 49.3413 141.947 49.3413C141.428 49.3413 140.937 49.2431 140.488 49.0607C140.039 48.8643 139.647 48.5977 139.296 48.261C138.959 47.9244 138.693 47.5175 138.496 47.0686C138.3 46.6056 138.216 46.1146 138.216 45.5955V18.9121H130.739V45.5955C130.739 46.1146 130.641 46.6056 130.458 47.0686C130.262 47.5315 129.995 47.9244 129.659 48.261C129.322 48.5977 128.929 48.8643 128.466 49.0607C128.018 49.2571 127.527 49.3413 127.008 49.3413C126.488 49.3413 125.998 49.2431 125.549 49.0607C125.1 48.8643 124.707 48.5977 124.37 48.261C124.034 47.9244 123.767 47.5175 123.571 47.0686C123.374 46.6056 123.276 46.1146 123.276 45.5955V18.9121H115.799V45.5955C115.799 47.1387 116.094 48.5978 116.669 49.9586C117.244 51.3194 118.044 52.5119 119.068 53.522C120.092 54.5321 121.27 55.3318 122.631 55.921C123.992 56.5102 125.45 56.7908 126.993 56.7908C128.382 56.7908 129.715 56.5523 131.005 56.0612C132.296 55.5702 133.446 54.8688 134.47 53.9288C135.494 54.8688 136.645 55.5843 137.921 56.0612C139.198 56.5523 140.53 56.7908 141.919 56.7908C143.462 56.7908 144.921 56.4962 146.282 55.921C147.642 55.3458 148.835 54.5461 149.845 53.522C150.855 52.4979 151.654 51.3194 152.243 49.9586C152.819 48.5978 153.113 47.1387 153.113 45.5955V18.9121H145.664V45.5955H145.693Z" fill="#FF2532"/>
<path d="M163.269 19.9503C162.947 19.6276 162.554 19.375 162.119 19.1927C161.684 18.9963 161.207 18.9121 160.716 18.9121C160.225 18.9121 159.748 19.0103 159.313 19.1927C158.878 19.3891 158.5 19.6416 158.177 19.9503C157.854 20.2729 157.602 20.6517 157.406 21.0866C157.223 21.5215 157.125 21.9845 157.125 22.4755C157.125 22.9665 157.223 23.4435 157.406 23.8644C157.602 24.2993 157.854 24.6781 158.177 24.9867C158.5 25.3094 158.878 25.5619 159.313 25.7583C159.748 25.9547 160.225 26.0389 160.716 26.0389C161.207 26.0389 161.684 25.9407 162.119 25.7583C162.554 25.5619 162.932 25.3094 163.269 24.9867C163.592 24.664 163.858 24.2853 164.041 23.8644C164.223 23.4295 164.321 22.9665 164.321 22.4755C164.321 21.9845 164.223 21.5355 164.041 21.0866C163.844 20.6517 163.592 20.2729 163.269 19.9503Z" fill="#FF2532"/>
<path d="M164.293 28.3672H157.125V56.2712H164.293V28.3672Z" fill="#FF2532"/>
<path d="M334.155 28.8867H326.987V56.7907H334.155V28.8867Z" fill="#FF2532"/>
<path d="M333.146 19.9503C332.823 19.6276 332.43 19.375 331.995 19.1927C331.56 18.9963 331.084 18.9121 330.593 18.9121C330.102 18.9121 329.625 19.0103 329.19 19.1927C328.755 19.3891 328.376 19.6416 328.054 19.9503C327.731 20.2729 327.478 20.6517 327.282 21.0866C327.1 21.5215 327.001 21.9845 327.001 22.4755C327.001 22.9665 327.1 23.4435 327.282 23.8644C327.478 24.2993 327.731 24.6781 328.054 24.9867C328.376 25.3094 328.755 25.5619 329.19 25.7583C329.625 25.9547 330.102 26.0389 330.593 26.0389C331.084 26.0389 331.56 25.9407 331.995 25.7583C332.43 25.5619 332.809 25.3094 333.146 24.9867C333.468 24.664 333.735 24.2853 333.917 23.8644C334.1 23.4295 334.198 22.9665 334.198 22.4755C334.198 21.9845 334.1 21.5355 333.917 21.0866C333.721 20.6517 333.468 20.2729 333.146 19.9503Z" fill="#FF2532"/>
<path d="M263.919 26.3335C263.273 25.2252 262.488 24.2151 261.576 23.3032C260.664 22.3913 259.654 21.6057 258.546 20.9604C257.438 20.315 256.259 19.81 254.997 19.4452C253.734 19.0945 252.402 18.9121 251.041 18.9121H236.087V56.2857H243.564V48.8082L251.925 48.7521L255.179 56.2857H263.133L258.995 46.5074C260.075 45.834 261.043 45.0344 261.913 44.1084C262.782 43.1825 263.512 42.1724 264.115 41.0781C264.718 39.9839 265.167 38.8335 265.504 37.6129C265.826 36.3924 265.981 35.1438 265.981 33.8531C265.981 32.4783 265.798 31.1595 265.448 29.8969C265.097 28.6343 264.592 27.4418 263.933 26.3335H263.919ZM257.901 36.7712C257.508 37.6831 256.975 38.4828 256.301 39.1562C255.628 39.8295 254.829 40.3626 253.931 40.7555C253.033 41.1483 252.065 41.3447 251.041 41.3447H243.564V26.3896H251.041C252.065 26.3896 253.033 26.5861 253.931 26.9789C254.829 27.3717 255.628 27.9048 256.301 28.5782C256.975 29.2516 257.508 30.0512 257.901 30.9631C258.293 31.875 258.49 32.8431 258.49 33.8672C258.49 34.8913 258.293 35.8593 257.901 36.7712Z" fill="#FF2532"/>
<path d="M309.13 46.2828L303.028 28.8867H294.92L305.553 56.7907H312.693L323.326 28.8867H315.19L309.13 46.2828Z" fill="#FF2532"/>
<path d="M396.916 28.9277V46.7027C396.916 47.1937 396.818 47.6426 396.635 48.0775C396.453 48.5124 396.186 48.8772 395.864 49.1999C395.541 49.5225 395.162 49.7751 394.728 49.9574C394.293 50.1398 393.83 50.224 393.353 50.224C392.876 50.224 392.413 50.1398 391.978 49.9574C391.543 49.7751 391.179 49.5225 390.856 49.1999C390.533 48.8772 390.281 48.4984 390.084 48.0775C389.888 47.6566 389.804 47.1937 389.804 46.7027V28.9277H382.72V46.7027C382.72 47.1937 382.622 47.6426 382.439 48.0775C382.257 48.5124 382.004 48.8772 381.668 49.1999C381.331 49.5225 380.952 49.7751 380.517 49.9574C380.083 50.1398 379.62 50.224 379.143 50.224C378.666 50.224 378.203 50.1398 377.768 49.9574C377.333 49.7751 376.968 49.5225 376.646 49.1999C376.323 48.8772 376.071 48.4984 375.888 48.0775C375.706 47.6566 375.608 47.1937 375.608 46.7027V28.9277H368.496V46.7027C368.496 48.1617 368.776 49.5366 369.323 50.8272C369.884 52.1179 370.642 53.2403 371.596 54.2083C372.564 55.1623 373.686 55.9198 374.976 56.481C376.267 57.0422 377.642 57.3087 379.115 57.3087C380.447 57.3087 381.724 57.0843 382.93 56.6213C384.137 56.1583 385.231 55.4849 386.199 54.6011C387.195 55.4849 388.289 56.1583 389.509 56.6213C390.73 57.0843 391.992 57.3087 393.311 57.3087C394.784 57.3087 396.172 57.0281 397.463 56.481C398.754 55.9198 399.89 55.1763 400.844 54.2083C401.812 53.2543 402.569 52.132 403.13 50.8272C403.691 49.5366 403.958 48.1617 403.958 46.7027V28.9277H396.874H396.916Z" fill="#FF2532"/>
<path d="M189.501 31.4406C188.379 30.3182 187.06 29.4344 185.545 28.775C184.03 28.1297 182.417 27.793 180.692 27.793C178.966 27.793 177.353 28.1157 175.838 28.775C174.323 29.4204 173.005 30.3182 171.868 31.4406C170.732 32.5629 169.848 33.8816 169.189 35.3968C168.53 36.9119 168.207 38.5253 168.207 40.2509V56.2862H175.319V40.8962C175.319 40.0685 175.459 39.2969 175.74 38.5673C176.02 37.8378 176.399 37.2065 176.89 36.6594C177.381 36.1123 177.942 35.6773 178.602 35.3687C179.261 35.0601 179.948 34.8917 180.692 34.8917C181.435 34.8917 182.123 35.046 182.782 35.3687C183.441 35.6773 184.002 36.1123 184.493 36.6594C184.984 37.2065 185.363 37.8378 185.644 38.5673C185.924 39.2969 186.064 40.0685 186.064 40.8962V56.2862H193.162V40.2509C193.162 38.5253 192.84 36.9119 192.18 35.3968C191.535 33.8816 190.637 32.5629 189.515 31.4406H189.501Z" fill="#FF2532"/>
<path d="M62.9286 34.7782C62.4797 33.8804 61.9326 33.0386 61.2873 32.281C58.5519 29.0403 54.2173 27.2446 49.9809 27.5392C45.7446 27.8338 41.7186 30.1626 39.2918 33.6278C36.0373 38.2715 35.7007 44.7389 38.5904 49.6351C40.3439 52.5812 43.1494 54.9241 46.4319 55.9762C51.033 57.4633 56.3776 56.3831 60.0389 53.2125C58.7203 51.2484 57.4016 49.2703 56.083 47.3062C54.3716 49.1581 51.6222 49.9858 49.1673 49.3826C46.7125 48.7793 44.6644 46.7451 44.0332 44.304C50.6403 44.276 57.2333 44.2619 63.8404 44.2339C64.7522 41.1194 64.3734 37.6822 62.9286 34.7922V34.7782ZM44.454 39.001C44.8047 38.1592 45.2396 37.4017 45.8007 36.7563C46.4319 36.0409 47.1754 35.4797 48.0451 35.0728C48.9008 34.68 49.8266 34.4696 50.7946 34.4696C51.4819 34.4696 52.1693 34.5678 52.8286 34.7782C53.4879 34.9887 54.1051 35.2973 54.6662 35.6901C55.2273 36.0829 55.7464 36.5739 56.1953 37.1632C56.6021 37.7103 56.9948 38.51 57.2053 39.0431L44.468 38.987L44.454 39.001Z" fill="#FF2532"/>
<path d="M222.607 34.6669C222.158 33.769 221.597 32.9132 220.952 32.1416C218.188 28.8588 213.783 27.049 209.505 27.3437C205.226 27.6383 201.144 29.9952 198.675 33.5165C195.379 38.2163 195.028 44.7819 197.974 49.7202C199.742 52.7084 202.603 55.0652 205.914 56.1455C210.571 57.6606 216 56.5523 219.703 53.3397C218.37 51.3475 217.024 49.3414 215.691 47.3492C213.952 49.2291 211.174 50.0709 208.691 49.4536C206.208 48.8363 204.132 46.7881 203.487 44.3189C210.178 44.2909 216.869 44.2769 223.547 44.2488C224.473 41.0922 224.08 37.613 222.621 34.6809L222.607 34.6669ZM203.894 38.9458C204.244 38.09 204.693 37.3184 205.254 36.6731C205.9 35.9436 206.657 35.3683 207.527 34.9755C208.397 34.5687 209.323 34.3723 210.319 34.3723C211.02 34.3723 211.707 34.4845 212.381 34.695C213.054 34.9054 213.671 35.214 214.246 35.6209C214.821 36.0277 215.34 36.5047 215.789 37.108C216.196 37.6551 216.589 38.4688 216.813 39.0159L203.908 38.9598L203.894 38.9458Z" fill="#FF2532"/>
<path d="M293.98 34.6669C293.531 33.769 292.97 32.9132 292.325 32.1416C289.561 28.8588 285.156 27.049 280.878 27.3437C276.599 27.6383 272.517 29.9952 270.049 33.5165C266.752 38.2163 266.401 44.7819 269.347 49.7202C271.115 52.7084 273.976 55.0652 277.287 56.1455C281.944 57.6606 287.373 56.5523 291.076 53.3397C289.744 51.3475 288.397 49.3414 287.064 47.3492C285.325 49.2291 282.547 50.0709 280.064 49.4536C277.581 48.8363 275.505 46.7881 274.86 44.3189C281.551 44.2909 288.243 44.2769 294.92 44.2488C295.846 41.0922 295.453 37.613 293.994 34.6809L293.98 34.6669ZM275.267 38.9458C275.618 38.09 276.066 37.3184 276.628 36.6731C277.273 35.9436 278.03 35.3683 278.9 34.9755C279.77 34.5687 280.696 34.3723 281.692 34.3723C282.393 34.3723 283.08 34.4845 283.754 34.695C284.427 34.9054 285.044 35.214 285.619 35.6209C286.194 36.0277 286.714 36.5047 287.162 37.108C287.569 37.6551 287.962 38.4688 288.186 39.0159L275.281 38.9598L275.267 38.9458Z" fill="#FF2532"/>
<path d="M363.81 34.6669C363.362 33.769 362.8 32.9132 362.155 32.1416C359.392 28.8588 354.987 27.049 350.709 27.3437C346.43 27.6383 342.348 29.9952 339.879 33.5165C336.583 38.2163 336.232 44.7819 339.178 49.7202C340.945 52.7084 343.807 55.0652 347.117 56.1455C351.775 57.6606 357.203 56.5523 360.907 53.3397C359.574 51.3475 358.227 49.3414 356.895 47.3492C355.155 49.2291 352.378 50.0709 349.895 49.4536C347.412 48.8363 345.336 46.7881 344.691 44.3189C351.382 44.2909 358.073 44.2769 364.75 44.2488C365.676 41.0922 365.283 37.613 363.824 34.6809L363.81 34.6669ZM345.097 38.9458C345.448 38.09 345.897 37.3184 346.458 36.6731C347.103 35.9436 347.861 35.3683 348.731 34.9755C349.6 34.5687 350.526 34.3723 351.522 34.3723C352.224 34.3723 352.911 34.4845 353.584 34.695C354.258 34.9054 354.875 35.214 355.45 35.6209C356.025 36.0277 356.544 36.5047 356.993 37.108C357.4 37.6551 357.793 38.4688 358.017 39.0159L345.111 38.9598L345.097 38.9458Z" fill="#FF2532"/>
<path d="M0 2.79181H3.49292V12.0791H6.27042V2.79181H9.74931V0H0V2.79181Z" fill="#FF2532"/>
<path d="M19.3303 4.65769H15.1501V0H12.3726V12.0791H15.1501V7.43545H19.3303V12.0791H22.1219V0H19.3303V4.65769Z" fill="#FF2532"/>
</svg>
